<svg xmlns="http://www.w3.org/2000/svg" viewBox="0 0 100 1000"><rect width="100" height="1000" fill="#8e1be0"/><g fill-opacity=".38"><circle cx="50" cy="0" r="50" fill="#8e1be0"/><g fill="#882ce5"><circle cx="0" cy="50" r="50"/><circle cx="100" cy="50" r="50"/></g><circle cx="50" cy="100" r="50" fill="#8138e9"/><g fill="#7a41ed"><circle cx="0" cy="150" r="50"/><circle cx="100" cy="150" r="50"/></g><circle cx="50" cy="200" r="50" fill="#734af0"/><g fill="#6c51f4"><circle cx="0" cy="250" r="50"/><circle cx="100" cy="250" r="50"/></g><circle cx="50" cy="300" r="50" fill="#6558f6"/><g fill="#5d5ff9"><circle cx="0" cy="350" r="50"/><circle cx="100" cy="350" r="50"/></g><circle cx="50" cy="400" r="50" fill="#5665fb"/><g fill="#4e6bfd"><circle cx="0" cy="450" r="50"/><circle cx="100" cy="450" r="50"/></g><circle cx="50" cy="500" r="50" fill="#4670fe"/><g fill="#3e75ff"><circle cx="0" cy="550" r="50"/><circle cx="100" cy="550" r="50"/></g><circle cx="50" cy="600" r="50" fill="#367aff"/><g fill="#2f7fff"><circle cx="0" cy="650" r="50"/><circle cx="100" cy="650" r="50"/></g><circle cx="50" cy="700" r="50" fill="#2783ff"/><g fill="#2088ff"><circle cx="0" cy="750" r="50"/><circle cx="100" cy="750" r="50"/></g><circle cx="50" cy="800" r="50" fill="#1b8cff"/><g fill="#1790ff"><circle cx="0" cy="850" r="50"/><circle cx="100" cy="850" r="50"/></g><circle cx="50" cy="900" r="50" fill="#1794ff"/><g fill="#1a98ff"><circle cx="0" cy="950" r="50"/><circle cx="100" cy="950" r="50"/></g><circle cx="50" cy="1000" r="50" fill="#1f9cff"/></g></svg>